<svg width="160" height="41" viewBox="0 0 160 41" fill="none" xmlns="http://www.w3.org/2000/svg">
<path fill-rule="evenodd" clip-rule="evenodd" d="M141.626 18.0202C141.626 18.0202 139.418 22.3294 137.053 24.4448H134.372C132.085 22.4078 129.798 18.0202 129.798 18.0202V31.4962H123.016V11.5173H130.902L135.712 18.8037L140.522 11.5173H148.408V31.4962H141.626V18.0202ZM61.1139 15.9832C59.6156 15.9832 57.4076 17.1584 57.0133 18.412C57.5653 19.4305 59.6944 20.2923 61.035 20.214C62.4544 20.214 63.4796 19.4305 63.4796 18.0986C63.4796 16.7666 62.4544 15.9832 61.1139 15.9832ZM110.399 15.9832C108.901 15.9832 106.693 17.1584 106.299 18.412C106.851 19.4305 108.98 20.2923 110.32 20.214C111.74 20.214 112.765 19.4305 112.765 18.0986C112.765 16.7666 111.74 15.9832 110.399 15.9832ZM36.1163 26.1685C33.4352 26.1685 31.1484 22.9562 30.7541 20.9975C31.1484 19.0388 33.4352 15.7481 36.1163 15.8265C38.7186 15.8265 39.9014 18.0986 39.9014 20.9975C39.9014 23.818 38.7186 26.1685 36.1163 26.1685ZM85.244 16.3749C82.5628 16.3749 80.276 19.3522 79.8817 21.3109C80.276 23.3479 82.484 26.7953 85.244 26.7169C87.8462 26.7169 89.0291 24.4448 89.0291 21.5459C89.0291 18.7254 87.8462 16.3749 85.244 16.3749ZM62.7698 26.7169C64.1104 26.7169 66.4761 26.4035 67.3435 25.9335L70.1824 29.5375C68.3687 31.0261 64.2681 32.0447 61.587 32.0447C54.411 32.0447 49.8374 27.7355 49.8374 21.3109C49.8374 14.9646 55.1996 10.6554 61.4293 10.6554C67.1858 10.6554 69.4726 14.4162 69.4726 17.7068C69.4726 21.781 66.003 23.8964 62.0601 23.8964C60.0887 23.8964 58.1173 23.3479 56.6979 22.1727C56.9345 24.6799 59.6944 26.7169 62.7698 26.7169ZM112.055 26.7169C113.396 26.7169 115.761 26.4035 116.629 25.9335L119.468 29.5375C117.654 31.0261 113.553 32.0447 110.872 32.0447C103.696 32.0447 99.1227 27.7355 99.1227 21.3109C99.1227 14.9646 104.485 10.6554 110.715 10.6554C116.471 10.6554 118.758 14.4162 118.758 17.7068C118.758 21.781 115.288 23.8964 111.345 23.8964C109.374 23.8964 107.403 23.3479 105.983 22.1727C106.22 24.6799 108.98 26.7169 112.055 26.7169ZM8.3588 32.0447C11.5131 32.0447 13.9576 29.6942 13.9576 29.6942V30.9478C13.9576 34.0034 12.0651 35.6487 7.25481 35.6487C5.91424 35.6487 3.54855 34.9436 2.68112 34.4735L0.551996 37.6858C2.3657 39.1744 5.75653 40.5063 9.06851 40.5847C15.6925 40.5847 20.2661 37.059 20.2661 30.4777V11.5173H13.4845V21.9377C13.4845 25.0716 11.7496 25.8551 10.0148 25.8551C8.27994 25.8551 6.78167 25.0716 6.78167 21.9377V11.5173H0V23.3479C0 28.6757 2.60227 32.0447 8.3588 32.0447ZM95.8108 21.0758C95.8108 28.754 90.6062 32.0447 85.8748 32.0447C83.6668 32.0447 81.932 31.1828 80.828 29.8509V39.7228H74.0463V11.4389H77.9103C78.5412 12.4575 78.9354 13.3976 79.3297 14.4162H79.5663C79.5663 14.4162 82.4051 10.6554 86.9788 10.6554C91.5525 10.6554 95.8108 14.2595 95.8108 21.0758ZM38.3243 10.7338C33.7506 10.7338 31.3061 14.0244 31.3061 14.0244H31.0695C30.5964 10.5771 32.6466 8.46167 37.8512 7.99158C40.9266 7.67818 45.7368 6.18956 47.3928 4.46588L44.1597 0C41.6363 1.25358 38.8763 1.64532 35.4855 2.11542C31.4638 2.66386 24.1301 5.09267 24.0513 16.6099C24.0513 27.7355 30.1232 32.123 35.8797 32.123C41.3997 32.123 46.6042 27.8922 46.6042 21.1542C46.6042 14.3378 42.5037 10.7338 38.3243 10.7338ZM156.688 24.6015C154.48 24.6015 152.43 27.3437 152.114 29.0674C152.43 30.7127 154.401 33.5333 156.688 33.5333C157.082 33.5333 157.398 33.4549 157.713 33.3766C159.29 32.9065 160 31.1045 160 29.0674C160 26.7953 159.133 24.9149 157.24 24.6015H156.688Z" fill="#404040"/>
</svg>
